<svg width="16" height="20" viewBox="0 0 16 20" fill="none" xmlns="http://www.w3.org/2000/svg">
<path d="M14.4796 6.2989C14.4395 5.81745 14.2389 5.37613 13.9179 5.05517C13.5969 4.7342 13.1757 4.5336 12.6742 4.5336H11.611V3.61083C11.611 2.60782 11.2098 1.70512 10.5478 1.06319C9.8858 0.401204 8.9831 0 8.00015 0C6.99714 0 6.09443 0.401204 5.4525 1.06319C4.79052 1.70512 4.38931 2.60782 4.38931 3.61083V4.5336H3.32613C2.82462 4.5336 2.40336 4.7342 2.08239 5.05517C1.76143 5.37613 1.56083 5.81745 1.52071 6.2989L0.45752 18.1745C0.45752 18.2347 0.45752 18.2949 0.45752 18.3149C0.45752 18.7563 0.638061 19.1775 0.959024 19.4784C1.25993 19.7593 1.66113 19.9599 2.08239 20H2.10245C2.16263 20 2.22282 20 2.26294 20H13.7374C13.7775 20 13.8377 20 13.8978 20C14.3392 19.9599 14.7404 19.7593 15.0413 19.4784C15.3622 19.1775 15.5428 18.7563 15.5428 18.2949C15.5428 18.2548 15.5428 18.2146 15.5428 18.1545L14.4796 6.2989ZM5.49262 3.61083C5.49262 2.90873 5.77347 2.28686 6.23485 1.82548C6.69624 1.36409 7.3181 1.08325 8.02021 1.08325C8.72231 1.08325 9.34418 1.36409 9.80556 1.82548C10.2669 2.28686 10.5478 2.90873 10.5478 3.61083V4.5336H5.49262V3.61083ZM14.4194 18.3149C14.4194 18.4754 14.3592 18.6158 14.2389 18.7162C14.1185 18.8365 13.938 18.9168 13.7775 18.9368C13.7775 18.9368 13.7574 18.9368 13.7173 18.9368H2.26294C2.22282 18.9368 2.20276 18.9368 2.20276 18.9368H2.1827C2.00215 18.9168 1.84167 18.8365 1.72131 18.7162C1.60095 18.6158 1.54077 18.4754 1.54077 18.3149V18.2548L2.60396 6.3992C2.62402 6.17854 2.72432 5.97793 2.86474 5.83751C2.9851 5.71715 3.14558 5.63691 3.32613 5.63691H4.38931V8.08425C4.38931 8.38516 4.63004 8.62588 4.93094 8.62588C5.23184 8.62588 5.47256 8.38516 5.47256 8.08425V5.63691H10.4876V8.08425C10.4876 8.38516 10.7283 8.62588 11.0292 8.62588C11.3301 8.62588 11.5709 8.38516 11.5709 8.08425V5.63691H12.634C12.8146 5.63691 12.9751 5.71715 13.0954 5.83751C13.2359 5.97793 13.3362 6.17854 13.3562 6.3992L14.4194 18.2748V18.3149Z" fill="white"/>
</svg>
